<svg width="25" height="24" viewBox="0 0 25 24" fill="none" xmlns="http://www.w3.org/2000/svg">
<path d="M14.564 11.2753L15.9097 8.99209L19.5366 14.6412L19.5383 15.7252L19.5265 8.26517C19.5179 8.08282 19.421 7.91598 19.2665 7.81761L12.7367 4.06157C12.584 3.98651 12.3903 3.98731 12.2378 4.0639C12.2173 4.07425 12.1979 4.08545 12.1794 4.09768L12.1566 4.112L5.8184 7.78498L5.79377 7.79612C5.76216 7.81068 5.7302 7.82916 5.70018 7.85065C5.58003 7.93685 5.5002 8.06428 5.47438 8.20723C5.47052 8.22889 5.46767 8.25096 5.46631 8.27319L5.47626 14.3524L8.85457 9.11622C9.2799 8.42188 10.2066 8.19824 11.0669 8.21041L12.0766 8.23708L6.12749 17.7777L6.82877 18.1815L12.8492 8.24675L15.5102 8.23708L9.5053 18.4225L12.0077 19.8618L12.3066 20.0337C12.4331 20.0851 12.5822 20.0877 12.7097 20.0417L19.3313 16.2044L18.0653 16.938L14.564 11.2753ZM15.0774 18.6695L12.55 14.7027L14.0928 12.0847L17.4121 17.3165L15.0774 18.6695Z" fill="#2D374B"/>
<path d="M12.5503 14.704L15.0777 18.6707L17.4125 17.3177L14.0932 12.0859L12.5503 14.704Z" fill="#28A0F0"/>
<path d="M19.5387 15.7253L19.537 14.6413L15.9101 8.99219L14.5645 11.2754L18.0658 16.9381L19.3317 16.2045C19.4559 16.1037 19.531 15.9557 19.5389 15.796L19.5387 15.7253Z" fill="#28A0F0"/>
<path d="M4.3399 16.7486L6.12763 17.7787L12.0767 8.23807L11.067 8.2114C10.2068 8.19924 9.28009 8.42287 8.85471 9.11721L5.47639 14.3534L4.33984 16.0997V16.7486H4.3399Z" fill="white"/>
<path d="M15.5104 8.23828L12.8495 8.24795L6.8291 18.1827L8.93338 19.3943L9.50563 18.4237L15.5104 8.23828Z" fill="white"/>
<path d="M20.6598 8.22422C20.6376 7.66772 20.3362 7.15824 19.8642 6.86165L13.2489 3.05733C12.782 2.82221 12.1987 2.82192 11.731 3.05716C11.6758 3.08502 5.29768 6.78409 5.29768 6.78409C5.20943 6.8264 5.12442 6.87683 5.04441 6.93403C4.62307 7.23603 4.36623 7.70525 4.33984 8.22081V16.0996L5.47639 14.3533L5.46644 8.27409C5.46781 8.25186 5.47059 8.23002 5.47452 8.20842C5.50016 8.06535 5.58005 7.93775 5.70031 7.85155C5.73034 7.83006 12.2173 4.07515 12.238 4.0648C12.3905 3.98821 12.5842 3.98741 12.7369 4.06247L19.2667 7.81852C19.4212 7.91689 19.518 8.08372 19.5266 8.26607V15.7968C19.5187 15.9565 19.4556 16.1044 19.3314 16.2053L18.0654 16.9389L17.4123 17.3174L15.0775 18.6704L12.7098 20.0426C12.5823 20.0887 12.4332 20.0861 12.3067 20.0346L9.50537 18.4234L8.93312 19.3939L11.4506 20.8434C11.5339 20.8907 11.6081 20.9327 11.6689 20.9669C11.7632 21.0198 11.8274 21.0551 11.8501 21.0661C12.029 21.1529 12.2864 21.2035 12.5184 21.2035C12.7311 21.2035 12.9385 21.1645 13.1348 21.0876L20.0119 17.1049C20.4066 16.7991 20.6389 16.3379 20.6598 15.8382V8.22422Z" fill="#96BEDC"/>
</svg>
