<svg width="25" height="24" viewBox="0 0 25 24" fill="none" xmlns="http://www.w3.org/2000/svg">
<path d="M18.7154 5.20117H6.28467V16.5049H18.7154V5.20117Z" fill="white"/>
<path fill-rule="evenodd" clip-rule="evenodd" d="M21.628 12.0003C21.628 17.0444 17.5412 21.1334 12.4998 21.1334C7.45842 21.1334 3.37158 17.0444 3.37158 12.0003C3.37158 6.95622 7.45842 2.86719 12.4998 2.86719C17.5412 2.86719 21.628 6.95622 21.628 12.0003ZM9.91311 15.6348H8.14159C7.76933 15.6348 7.58546 15.6348 7.47334 15.5631C7.35224 15.4845 7.27825 15.3544 7.26928 15.2107C7.26254 15.0784 7.35449 14.9168 7.53837 14.5937L11.9125 6.87961C12.0986 6.55204 12.1928 6.38825 12.3116 6.32767C12.4395 6.26261 12.592 6.26261 12.7198 6.32767C12.8386 6.38825 12.9328 6.55204 13.1189 6.87961L14.0182 8.45017L14.0227 8.45818C14.2238 8.8096 14.3257 8.98782 14.3702 9.17486C14.4195 9.37903 14.4195 9.59442 14.3702 9.79859C14.3254 9.98706 14.2245 10.1666 14.0204 10.5233L11.7228 14.587L11.7168 14.5974C11.5145 14.9517 11.4119 15.1313 11.2698 15.2668C11.1151 15.4149 10.9289 15.5226 10.7249 15.5832C10.5388 15.6348 10.3302 15.6348 9.91311 15.6348ZM14.3868 15.6348H16.9252C17.2997 15.6348 17.4881 15.6348 17.6003 15.5609C17.7213 15.4823 17.7975 15.3499 17.8044 15.2064C17.8108 15.0783 17.7209 14.923 17.5446 14.6187C17.5385 14.6083 17.5325 14.5978 17.5263 14.5871L16.2547 12.4107L16.2403 12.3862C16.0616 12.0839 15.9714 11.9313 15.8556 11.8723C15.7278 11.8072 15.5775 11.8072 15.4497 11.8723C15.3331 11.9328 15.2389 12.0921 15.0528 12.413L13.7858 14.5893L13.7815 14.5968C13.596 14.9171 13.5033 15.0772 13.51 15.2086C13.519 15.3522 13.593 15.4845 13.7141 15.5631C13.824 15.6348 14.0123 15.6348 14.3868 15.6348Z" fill="#E84142"/>
</svg>
