<svg width="25" height="24" viewBox="0 0 25 24" fill="none" xmlns="http://www.w3.org/2000/svg">
<path d="M7.04087 5.29591L12.2428 2.29297L17.4448 5.29591L15.5323 6.40528L12.2428 4.5117L8.95336 6.40528L7.04087 5.29591ZM17.4448 9.08305L15.5323 7.97369L12.2428 9.86726L8.95336 7.97369L7.04087 9.08305V11.3018L10.3303 13.1953V16.9825L12.2428 18.0919L14.1553 16.9825V13.1953L17.4448 11.3018V9.08305ZM17.4448 15.0889V12.8702L15.5323 13.9795V16.1983L17.4448 15.0889ZM18.8026 15.8731L15.5132 17.7667V19.9854L20.7152 16.9825V10.9766L18.8026 12.086V15.8731ZM16.8902 7.18948L18.8026 8.29884V10.5176L20.7152 9.40821V7.18948L18.8026 6.08012L16.8902 7.18948ZM10.3303 18.5701V20.7888L12.2428 21.8981L14.1553 20.7888V18.5701L12.2428 19.6794L10.3303 18.5701ZM7.04087 15.0889L8.95336 16.1983V13.9795L7.04087 12.8702V15.0889ZM10.3303 7.18948L12.2428 8.29884L14.1553 7.18948L12.2428 6.08012L10.3303 7.18948ZM5.68299 8.29884L7.59548 7.18948L5.68299 6.08012L3.77051 7.18948V9.40821L5.68299 10.5176V8.29884ZM5.68299 12.086L3.77051 10.9766V16.9825L8.97246 19.9854V17.7667L5.68299 15.8731V12.086Z" fill="#F0B90B"/>
</svg>
