<svg width="74" height="74" viewBox="0 0 74 74" fill="none" xmlns="http://www.w3.org/2000/svg">
<path d="M9.66994 32.6269V28.7104C9.66994 28.5605 9.66994 28.5605 9.81475 28.5605H11.4631C11.6079 28.5605 11.6079 28.5605 11.6079 28.7003C11.6079 31.1854 11.6079 33.6702 11.6079 36.1545C11.5944 36.5386 11.668 36.9208 11.8232 37.2724C11.9376 37.5338 12.1202 37.7595 12.352 37.9259C12.5838 38.0923 12.8562 38.1931 13.1404 38.2179C13.6718 38.2821 14.1667 38.1839 14.5797 37.8188C14.8952 37.5266 15.101 37.1352 15.1628 36.7097C15.194 36.5259 15.2084 36.3396 15.2056 36.1532C15.2056 33.6656 15.2056 31.1775 15.2056 28.689C15.2056 28.5807 15.2345 28.5568 15.3391 28.5631C15.9032 28.5631 16.4724 28.5631 17.0302 28.5631C17.1158 28.5631 17.1436 28.5845 17.1436 28.6739C17.1436 31.1733 17.1436 33.6718 17.1436 36.1696C17.1547 36.7799 17.0367 37.3857 16.7973 37.9472C16.5887 38.4525 16.2599 38.8994 15.8395 39.2488C15.419 39.5983 14.9196 39.8399 14.3845 39.9527C13.5608 40.1569 12.6939 40.0983 11.9051 39.7853C11.4855 39.622 11.103 39.3759 10.7807 39.0616C10.4583 38.7473 10.2026 38.3713 10.0288 37.956C9.78532 37.381 9.66561 36.7612 9.67749 36.1369C9.67078 34.9652 9.66826 33.7952 9.66994 32.6269Z" fill="#161B1F"/>
<path d="M27.045 32.6185C27.045 31.3058 27.045 29.9931 27.045 28.6805C27.045 28.5835 27.0715 28.5546 27.171 28.5546C27.7338 28.5546 28.298 28.5546 28.8609 28.5546C28.9641 28.5546 28.9868 28.5823 28.9868 28.6805C28.9868 31.1715 28.9868 33.6634 28.9868 36.1561C28.9743 36.5366 29.047 36.9151 29.1996 37.2639C29.3138 37.5254 29.4962 37.7513 29.7277 37.9181C29.9592 38.0849 30.2313 38.1863 30.5155 38.2119C31.0482 38.2774 31.5418 38.1792 31.9561 37.8141C32.2715 37.5227 32.4777 37.1322 32.5404 36.7075C32.5727 36.52 32.5875 36.3299 32.5845 36.1397C32.5845 33.6554 32.5845 31.1711 32.5845 28.6868C32.5845 28.5835 32.6046 28.5496 32.7104 28.5508C33.2745 28.5567 33.8382 28.5567 34.4015 28.5508C34.496 28.5508 34.5187 28.5773 34.5187 28.6692C34.5187 31.161 34.5187 33.6525 34.5187 36.1435C34.5302 36.7501 34.4153 37.3525 34.1812 37.9123C33.9771 38.4187 33.6525 38.8676 33.2356 39.2202C32.8186 39.5727 32.322 39.8183 31.7886 39.9354C30.9589 40.1467 30.0835 40.0903 29.2878 39.7743C28.8681 39.6111 28.4856 39.3652 28.163 39.0512C27.8405 38.7371 27.5845 38.3614 27.4102 37.9463C27.1658 37.3719 27.0452 36.7525 27.0564 36.1284C27.048 34.9601 27.0442 33.7901 27.045 32.6185Z" fill="#161B1F"/>
<path d="M45.4688 34.1842V28.6953C45.4688 28.5605 45.4688 28.5605 45.6061 28.5605H51.5774C51.7109 28.5605 51.7109 28.5605 51.7109 28.6978C51.7109 29.2215 51.7109 29.7465 51.7109 30.2702C51.7109 30.3671 51.6832 30.3848 51.5925 30.3848H47.5239C47.4257 30.3848 47.398 30.4036 47.398 30.5106C47.403 31.3441 47.403 32.1779 47.398 33.0122C47.398 33.1078 47.4257 33.1292 47.5164 33.128C48.5447 33.128 49.5731 33.128 50.6015 33.128C50.7476 33.128 50.7476 33.128 50.7476 33.2778C50.7476 33.7977 50.7476 34.3189 50.7476 34.8401C50.7476 34.9258 50.7249 34.9522 50.6355 34.9522C49.5966 34.9522 48.5578 34.9522 47.5189 34.9522C47.4219 34.9522 47.393 34.9786 47.393 35.0781C47.393 36.0147 47.393 36.951 47.393 37.8868C47.393 37.9825 47.4219 38.0013 47.5189 38.0013H51.5862C51.6845 38.0013 51.7185 38.0177 51.7122 38.1272C51.7059 38.6585 51.7122 39.1898 51.7122 39.7211C51.7122 39.8029 51.6933 39.8268 51.6076 39.8268C49.5929 39.8268 47.5818 39.8268 45.5746 39.8268C45.4839 39.8268 45.4663 39.8004 45.4663 39.7148C45.4697 37.865 45.4705 36.0214 45.4688 34.1842Z" fill="#161B1F"/>
<path d="M58.2918 37.3615C57.6509 37.3615 57.0099 37.3615 56.3689 37.3615C56.2607 37.3615 56.2317 37.3275 56.2329 37.223C56.2329 36.7723 56.2329 36.3216 56.2329 35.8709C56.2326 35.8041 56.2476 35.7382 56.277 35.6783C57.2374 33.7084 58.1978 31.7361 59.1582 29.7612C59.3357 29.3974 59.5145 29.0336 59.6883 28.6685C59.6993 28.6357 59.7211 28.6076 59.7502 28.5888C59.7792 28.57 59.8138 28.5617 59.8482 28.5652C60.4892 28.5652 61.1301 28.5652 61.7711 28.5652C61.897 28.5652 61.897 28.5652 61.8366 28.6811C61.1835 30.0029 60.5295 31.3244 59.8747 32.6455L58.4996 35.429C58.4391 35.5549 58.4391 35.5549 58.5777 35.5549C59.1229 35.5549 59.6694 35.5549 60.2147 35.5549C60.3154 35.5549 60.3482 35.5272 60.3482 35.429C60.3482 34.8121 60.3482 34.1965 60.3482 33.5809C60.3482 33.4399 60.3482 33.4386 60.4892 33.4386C61.0282 33.4386 61.5671 33.4386 62.1061 33.4386C62.2131 33.4386 62.2446 33.4726 62.2446 33.5783C62.2446 34.1902 62.2446 34.8033 62.2446 35.4151C62.2446 35.5586 62.2446 35.5587 62.3907 35.5587C62.7684 35.5587 63.1374 35.5587 63.5114 35.5587C63.6146 35.5587 63.6373 35.5914 63.6373 35.6908C63.6373 36.202 63.6373 36.7118 63.6373 37.2217C63.6373 37.3589 63.6373 37.3615 63.4925 37.3615C63.1147 37.3615 62.7458 37.3615 62.3718 37.3615C62.2698 37.3615 62.2458 37.3954 62.2458 37.4949C62.2458 38.2163 62.2458 38.9376 62.2458 39.6603C62.2458 39.8063 62.2458 39.8063 62.101 39.8063H60.4905C60.3469 39.8063 60.3469 39.8063 60.3469 39.6578V37.505C60.3469 37.364 60.3469 37.364 60.2046 37.364L58.2918 37.3615Z" fill="#161B1F"/>
<path d="M2.22651 34.1774C2.22651 32.3486 2.22651 30.5189 2.22651 28.6884C2.22651 28.5889 2.24792 28.5625 2.35244 28.5625C4.30846 28.5625 6.26365 28.5625 8.218 28.5625C8.31622 28.5625 8.34392 28.5839 8.34392 28.6884C8.33762 29.2159 8.34392 29.7446 8.34392 30.2721C8.34392 30.3628 8.32377 30.3892 8.22807 30.3892C6.91468 30.3892 5.60003 30.3892 4.28664 30.3892C4.1796 30.3892 4.15316 30.4169 4.16071 30.5227C4.16575 31.3502 4.16575 32.1773 4.16071 33.004C4.16071 33.1035 4.18212 33.1299 4.28664 33.1299C5.23485 33.1299 6.1818 33.1299 7.12875 33.1299C7.23075 33.1299 7.25467 33.1551 7.25467 33.2558C7.24964 33.7796 7.24964 34.3037 7.25467 34.8282C7.25467 34.9327 7.22193 34.9541 7.12875 34.9541C6.18432 34.9541 5.23988 34.9541 4.29671 34.9541C4.19345 34.9541 4.16071 34.973 4.16197 35.08C4.16197 36.6172 4.16197 38.1556 4.16197 39.6928C4.16197 39.7897 4.13679 39.8187 4.03605 39.8187C3.47358 39.8137 2.91028 39.8137 2.34614 39.8187C2.23784 39.8187 2.22021 39.7834 2.22021 39.6928C2.22441 37.8497 2.22651 36.0112 2.22651 34.1774Z" fill="#161B1F"/>
<path d="M21.1267 35.0968V30.5156C21.1267 30.3645 21.1444 30.3834 20.9895 30.3834C20.1684 30.3834 19.3524 30.3834 18.5276 30.3834C18.442 30.3834 18.4143 30.3645 18.4156 30.2751C18.4156 29.7363 18.4156 29.1979 18.4156 28.6599C18.4156 28.5831 18.4319 28.5566 18.5138 28.5566C20.9013 28.5566 23.2893 28.5566 25.6776 28.5566C25.7607 28.5566 25.7746 28.5856 25.7746 28.6599C25.7746 29.1987 25.7746 29.7375 25.7746 30.2751C25.7746 30.367 25.7469 30.3834 25.6625 30.3834C24.8377 30.3834 24.0142 30.3834 23.1894 30.3834C23.0886 30.3834 23.0634 30.4048 23.0634 30.5093C23.0634 33.5634 23.0634 36.6181 23.0634 39.6731C23.0634 39.8292 23.0798 39.8078 22.93 39.8078C22.3658 39.8078 21.7966 39.8078 21.2388 39.8078C21.1418 39.8078 21.1242 39.7801 21.1242 39.6907C21.1284 38.159 21.1292 36.6277 21.1267 35.0968Z" fill="#161B1F"/>
<path d="M56.0617 42.7108C56.0617 42.7523 56.0617 42.7951 56.0617 42.8367C56.0657 42.8528 56.0664 42.8695 56.0638 42.8859C56.0613 42.9023 56.0555 42.918 56.0468 42.9322C56.0382 42.9464 56.0268 42.9587 56.0134 42.9684C55.9999 42.9782 55.9847 42.9852 55.9686 42.989C55.9294 43.0087 55.896 43.0382 55.8717 43.0747C55.8474 43.1113 55.8331 43.1535 55.8302 43.1973C55.8273 43.241 55.8358 43.2848 55.855 43.3242C55.8742 43.3636 55.9034 43.3974 55.9396 43.4221C56.0324 43.4774 56.1324 43.5198 56.2368 43.548C56.3488 43.592 56.4647 43.6235 56.5717 43.6739C56.6716 43.7291 56.7582 43.8055 56.8255 43.8977C56.8928 43.9899 56.9392 44.0957 56.9614 44.2077C56.9836 44.3197 56.981 44.4351 56.954 44.546C56.9269 44.6569 56.876 44.7605 56.8047 44.8497C56.7327 44.9413 56.6425 45.0169 56.5398 45.0717C56.437 45.1265 56.324 45.1594 56.2078 45.1682C56.1562 45.1682 56.1373 45.1619 56.1386 45.1103C56.1386 45.0264 56.1386 44.9383 56.1386 44.8459C56.1386 44.744 56.1285 44.6646 56.2645 44.6218C56.4257 44.5727 56.4471 44.3247 56.3224 44.2039C56.2485 44.1409 56.1629 44.093 56.0706 44.0629C55.9193 44.0164 55.7733 43.9544 55.6349 43.8778C55.4993 43.7908 55.394 43.664 55.3333 43.5148C55.2727 43.3656 55.2597 43.2013 55.2961 43.0444C55.3345 42.8846 55.4233 42.7414 55.5494 42.636C55.6755 42.5306 55.8322 42.4685 55.9963 42.459C56.0479 42.459 56.0655 42.4653 56.063 42.5169C56.0605 42.5685 56.0617 42.6466 56.0617 42.7108Z" fill="#161B1F"/>
<path d="M53.4399 44.0433C53.5658 43.7462 53.6741 43.4793 53.7761 43.2074C53.8114 43.1143 53.8567 43.0714 53.9587 43.0815C54.0319 43.0891 54.1058 43.0891 54.1791 43.0815C54.2748 43.074 54.2748 43.1105 54.2433 43.1835C54.0124 43.7114 53.7837 44.2397 53.557 44.7685C53.4311 45.0757 53.29 45.3803 53.1628 45.6888C53.1541 45.7239 53.1323 45.7542 53.1018 45.7737C53.0714 45.7931 53.0346 45.8001 52.9991 45.7933C52.9286 45.7857 52.8581 45.7933 52.7876 45.7933C52.6617 45.7933 52.6617 45.7933 52.7133 45.6837C52.8682 45.3338 53.0231 44.9838 53.1817 44.6363C53.1985 44.6045 53.2073 44.569 53.2073 44.5331C53.2073 44.4971 53.1985 44.4617 53.1817 44.4298C52.9865 44.0169 52.804 43.6002 52.605 43.1873C52.5647 43.1029 52.576 43.0777 52.6705 43.084C52.7652 43.0903 52.8603 43.0903 52.9551 43.084C52.9828 43.0795 53.0113 43.0857 53.0347 43.1013C53.0581 43.117 53.0746 43.141 53.081 43.1684C53.1931 43.4516 53.3114 43.7336 53.4399 44.0433Z" fill="#161B1F"/>
<path d="M66.7501 42.4958C66.8521 42.4958 66.973 42.4605 67.0485 42.5046C67.1241 42.5486 67.1329 42.6821 67.1744 42.7765C67.3558 43.2524 67.5354 43.7287 67.7134 44.2054C67.7409 44.2854 67.7777 44.3619 67.823 44.4333C67.844 44.4723 67.8728 44.5065 67.9077 44.5338C67.9426 44.5611 67.9828 44.5809 68.0257 44.5919C68.1403 44.6083 68.163 44.6649 68.1516 44.7669C68.1441 44.8616 68.1441 44.9567 68.1516 45.0514C68.1592 45.1345 68.1264 45.1521 68.0496 45.1484C67.9098 45.1484 67.7688 45.1421 67.6278 45.1484C67.5958 45.154 67.5629 45.147 67.5359 45.129C67.5089 45.1109 67.4899 45.0831 67.483 45.0514C67.2878 44.5214 67.0876 43.9927 66.8886 43.4639C66.8565 43.3734 66.8143 43.2868 66.7627 43.2058C66.7367 43.1592 66.7006 43.1191 66.657 43.0883C66.6134 43.0576 66.5634 43.0371 66.5108 43.0283C66.4416 43.0195 66.4265 42.9868 66.429 42.9238C66.429 42.8042 66.429 42.6846 66.429 42.5663C66.429 42.4983 66.4516 42.4807 66.5146 42.4844C66.5776 42.4882 66.6695 42.4844 66.7463 42.4844L66.7501 42.4958Z" fill="#161B1F"/>
<path d="M60.0254 42.4861H60.1627C60.334 42.4861 60.334 42.4861 60.3717 42.6473C60.5581 43.4517 60.7432 44.2549 60.9321 45.0594C60.9497 45.1299 60.9409 45.1513 60.8654 45.1475C60.7394 45.1475 60.6135 45.1475 60.4876 45.1475C60.4158 45.1475 60.3931 45.1249 60.378 45.0581C60.2685 44.5609 60.1539 44.0648 60.0418 43.5675C60.017 43.4469 59.9723 43.3311 59.9096 43.2251C59.8849 43.1758 59.8495 43.1326 59.8059 43.0989C59.7623 43.0651 59.7117 43.0415 59.6578 43.03C59.5898 43.0187 59.5835 42.9872 59.5973 42.9293C59.6288 42.8034 59.6578 42.6838 59.6817 42.5604C59.6943 42.4987 59.722 42.4811 59.7824 42.4849C59.8605 42.4899 59.9411 42.4861 60.0254 42.4861Z" fill="#161B1F"/>
<path d="M65.9302 43.8284C65.9302 44.011 65.9302 44.1935 65.9302 44.3761C65.9299 44.5786 65.8535 44.7736 65.7161 44.9223C65.5787 45.0711 65.3904 45.1628 65.1885 45.1793C65.1281 45.1793 65.1066 45.1793 65.1092 45.1113C65.1092 45.0269 65.1092 44.9426 65.1092 44.8595C65.1092 44.7764 65.0941 44.6694 65.2351 44.6341C65.3396 44.6077 65.3749 44.4906 65.3749 44.3824C65.3749 44.0047 65.3749 43.627 65.3749 43.2493C65.3809 43.1832 65.3619 43.1172 65.3215 43.0645C65.2811 43.0118 65.2224 42.9762 65.157 42.9648C65.1494 42.9641 65.1419 42.9617 65.1352 42.9579C65.1285 42.9542 65.1226 42.949 65.118 42.9429C65.1134 42.9367 65.1101 42.9297 65.1084 42.9222C65.1066 42.9147 65.1065 42.9069 65.1079 42.8993C65.1079 42.7734 65.1079 42.6387 65.1079 42.5091C65.1079 42.4574 65.1243 42.4461 65.1759 42.4499C65.3769 42.4624 65.566 42.5497 65.7058 42.6947C65.8457 42.8396 65.9262 43.0316 65.9315 43.2329C65.9315 43.4293 65.9315 43.6257 65.9315 43.8234L65.9302 43.8284Z" fill="#161B1F"/>
<path d="M64.2189 43.8059C64.2189 43.6158 64.2189 43.4282 64.2189 43.2356C64.2227 43.0369 64.3006 42.8467 64.4374 42.7023C64.5741 42.5579 64.7598 42.4698 64.9581 42.4551C65.0147 42.4551 65.0349 42.4639 65.0336 42.5193C65.0336 42.6452 65.0336 42.7711 65.0336 42.897C65.0336 42.9385 65.0173 42.9561 64.9757 42.9687C64.9132 42.9828 64.8579 43.0189 64.82 43.0705C64.782 43.1221 64.764 43.1856 64.7692 43.2495C64.7692 43.6263 64.7692 44.004 64.7692 44.3825C64.764 44.4463 64.782 44.5099 64.82 44.5615C64.8579 44.6131 64.9132 44.6492 64.9757 44.6633C65.0173 44.6758 65.0336 44.6935 65.0336 44.735C65.0336 44.8609 65.0336 44.9868 65.0336 45.1127C65.0336 45.1694 65.0147 45.1819 64.9581 45.1769C64.7595 45.1622 64.5737 45.0738 64.4369 44.9292C64.3002 44.7846 64.2224 44.5941 64.2189 44.3951C64.2164 44.2 64.2189 44.0023 64.2189 43.8059Z" fill="#161B1F"/>
<path d="M63.7305 43.8167C63.7305 44.2284 63.7305 44.6388 63.7305 45.0505C63.7305 45.1298 63.7078 45.1537 63.6297 45.1487C63.5173 45.1411 63.4046 45.1411 63.2922 45.1487C63.2003 45.155 63.1663 45.1298 63.1739 45.0341C63.1739 44.4789 63.1739 43.9237 63.1739 43.3685C63.1739 43.1054 63.1739 42.841 63.1739 42.5779C63.1739 42.5037 63.1953 42.481 63.2683 42.4848C63.3841 42.4911 63.5001 42.4911 63.6159 42.4848C63.7028 42.4848 63.7305 42.5037 63.7292 42.5943C63.7279 43.0009 63.7305 43.4088 63.7305 43.8167Z" fill="#161B1F"/>
<path d="M69.5621 43.8057C69.5621 43.3978 69.5621 42.9899 69.5621 42.5832C69.5621 42.5027 69.5847 42.48 69.6628 42.485C69.7786 42.4913 69.8946 42.4913 70.0103 42.485C70.0922 42.485 70.1174 42.5027 70.1174 42.5883C70.1174 43.2102 70.1174 43.8321 70.1174 44.454C70.1174 44.6542 70.1174 44.8544 70.1174 45.0545C70.1174 45.1301 70.0935 45.1515 70.0217 45.1477C69.8958 45.1477 69.7812 45.1414 69.6628 45.1477C69.5847 45.1477 69.5608 45.1301 69.5621 45.0495C69.5646 44.6353 69.5621 44.2211 69.5621 43.8057Z" fill="#161B1F"/>
<path d="M59.9705 44.8215C59.7187 44.8215 59.7187 44.8215 59.6532 45.0733C59.6406 45.1249 59.623 45.1514 59.5638 45.1489C59.4265 45.1489 59.2893 45.1489 59.152 45.1489C59.0916 45.1489 59.0815 45.1338 59.0953 45.0758C59.2448 44.4405 59.3929 43.8039 59.5399 43.166C59.5562 43.0918 59.594 43.088 59.6519 43.1081C59.7063 43.1248 59.7542 43.1577 59.7892 43.2025C59.9151 43.3813 60.0121 43.5664 59.9453 43.7993C59.9 43.9604 59.8685 44.1266 59.827 44.2903C59.8118 44.3545 59.827 44.3759 59.8962 44.3771C60.1481 44.3771 60.1481 44.3847 60.201 44.6289C60.2438 44.8203 60.2438 44.8203 60.0435 44.8203L59.9705 44.8215Z" fill="#161B1F"/>
<path d="M58.3475 44.1124C58.3475 44.4258 58.3475 44.7418 58.3475 45.0515C58.3475 45.1321 58.3248 45.1535 58.2468 45.1485C58.1208 45.1422 57.9949 45.1485 57.869 45.1485C57.8148 45.1485 57.7947 45.1346 57.796 45.078C57.796 44.4342 57.796 43.7905 57.796 43.1467C57.796 43.0901 57.8148 43.075 57.869 43.0762C57.9949 43.0762 58.1297 43.0825 58.2594 43.0762C58.3399 43.0762 58.3488 43.1065 58.3488 43.1744C58.345 43.4867 58.3475 43.7989 58.3475 44.1124Z" fill="#161B1F"/>
<path d="M62.2361 44.1124C62.2361 44.4258 62.2361 44.7418 62.2361 45.0515C62.2361 45.1321 62.2122 45.1535 62.1354 45.1485C62.0095 45.1422 61.8835 45.1485 61.7576 45.1485C61.7035 45.1485 61.6846 45.1346 61.6846 45.078C61.6846 44.4334 61.6846 43.7896 61.6846 43.1467C61.6846 43.0901 61.7047 43.075 61.7576 43.0762C61.8835 43.0762 62.0183 43.0825 62.148 43.0762C62.2298 43.0762 62.2386 43.1077 62.2374 43.1744C62.2349 43.4867 62.2361 43.7989 62.2361 44.1124Z" fill="#161B1F"/>
<path d="M68.1456 43.5115C68.1456 43.8237 68.1456 44.141 68.1456 44.4494C68.1456 44.5401 68.1129 44.5501 68.0398 44.5212C67.9638 44.4903 67.902 44.4325 67.866 44.3588C67.7633 44.1434 67.6741 43.9218 67.5991 43.6953C67.5952 43.6715 67.5952 43.6473 67.5991 43.6235C67.5991 43.2748 67.5991 42.9274 67.5991 42.5799C67.5991 42.5056 67.6218 42.4829 67.6948 42.4867C67.8106 42.493 67.9266 42.493 68.0423 42.4867C68.128 42.4867 68.1569 42.5056 68.1557 42.5963C68.1418 42.8997 68.1456 43.2056 68.1456 43.5115Z" fill="#161B1F"/>
<path d="M66.4338 44.124C66.4338 43.8118 66.4338 43.4945 66.4338 43.1861C66.4338 43.0942 66.4665 43.0854 66.5395 43.1143C66.6252 43.1499 66.6935 43.2177 66.7297 43.3032C66.8304 43.5084 66.8984 43.7262 66.9815 43.9402C66.984 43.9535 66.984 43.9672 66.9815 43.9805C66.9815 44.3493 66.9815 44.7182 66.9815 45.0871C66.9815 45.1337 66.9639 45.1488 66.9198 45.1475C66.7826 45.1475 66.6453 45.1475 66.508 45.1475C66.4375 45.1475 66.4287 45.1198 66.4287 45.0606C66.435 44.7497 66.4338 44.4362 66.4338 44.124Z" fill="#161B1F"/>
<path d="M58.075 42.998C57.8232 42.998 57.5713 42.998 57.3195 42.998C57.2477 42.998 57.2213 42.9779 57.2238 42.9036C57.2301 42.7916 57.2238 42.6783 57.2238 42.5662C57.2238 42.5007 57.2452 42.4844 57.3082 42.4844C57.8119 42.4844 58.3156 42.4844 58.8268 42.4844C58.886 42.4844 58.9087 42.4995 58.9061 42.5612C58.9061 42.677 58.9061 42.7928 58.9061 42.9086C58.9061 42.9779 58.886 42.9993 58.8167 42.998C58.575 42.9955 58.3256 42.998 58.075 42.998Z" fill="#161B1F"/>
<path d="M61.9601 42.4863C62.2119 42.4863 62.4638 42.4863 62.7156 42.4863C62.7811 42.4863 62.8025 42.504 62.8 42.5694C62.8 42.6852 62.8 42.8011 62.8 42.9169C62.8 42.9723 62.7899 43 62.7257 42.9987H61.1995C61.1391 42.9987 61.1189 42.9798 61.1202 42.9207C61.1202 42.8006 61.1202 42.681 61.1202 42.5619C61.1202 42.4989 61.1441 42.4863 61.2008 42.4863C61.4539 42.4876 61.707 42.4863 61.9601 42.4863Z" fill="#161B1F"/>
<path d="M70.7293 42.9987C70.5782 42.9987 70.4271 42.9987 70.276 42.9987C70.2143 42.9987 70.1866 42.9849 70.1891 42.9169C70.1891 42.7985 70.1891 42.6789 70.1891 42.5593C70.1891 42.5052 70.2067 42.4863 70.2622 42.4863C70.5707 42.4863 70.8804 42.4863 71.1902 42.4863C71.2368 42.4863 71.2607 42.4977 71.2595 42.5505C71.2595 42.6764 71.2595 42.8023 71.2595 42.9282C71.2595 42.9886 71.233 42.9987 71.1827 42.9975L70.7293 42.9987Z" fill="#161B1F"/>
<path d="M56.0619 44.9313V45.0358C56.0619 45.1894 56.0619 45.1894 55.9133 45.1692C55.7419 45.1447 55.5837 45.0633 55.4641 44.9383C55.3445 44.8132 55.2703 44.6516 55.2534 44.4793C55.2534 44.429 55.2534 44.4101 55.3126 44.4088C55.4486 44.4088 55.5859 44.3975 55.7219 44.3887C55.7735 44.3887 55.7974 44.3987 55.8075 44.4516C55.8141 44.4991 55.8346 44.5435 55.8664 44.5794C55.8982 44.6152 55.9399 44.6408 55.9863 44.653C56.0556 44.6707 56.0669 44.7034 56.0631 44.7626C56.0593 44.8217 56.0619 44.8746 56.0619 44.9313Z" fill="#161B1F"/>
<path d="M56.4548 43.2415C56.3894 43.2591 56.3667 43.2339 56.3541 43.1647C56.3499 43.1207 56.3325 43.079 56.3042 43.045C56.2759 43.0111 56.238 42.9866 56.1954 42.9746C56.1869 42.9735 56.1786 42.9707 56.1711 42.9663C56.1636 42.962 56.1571 42.9562 56.1519 42.9492C56.1467 42.9423 56.143 42.9344 56.141 42.926C56.1389 42.9176 56.1386 42.9088 56.14 42.9003C56.14 42.771 56.14 42.6414 56.14 42.5113C56.14 42.4685 56.1514 42.4508 56.2017 42.4534C56.3784 42.4635 56.5459 42.5354 56.675 42.6564C56.8041 42.7775 56.8866 42.9399 56.9082 43.1156C56.917 43.1898 56.8956 43.215 56.8225 43.2175C56.7004 43.2213 56.5783 43.2326 56.4548 43.2415Z" fill="#161B1F"/>
<path d="M70.532 44.0274C70.4438 44.0274 70.3557 44.0274 70.2688 44.0274C70.2134 44.0274 70.1832 44.0173 70.1857 43.9531C70.1857 43.8272 70.1857 43.7076 70.1857 43.5855C70.1857 43.5288 70.2096 43.5125 70.2613 43.5137C70.4438 43.5137 70.6264 43.5137 70.809 43.5137C70.8657 43.5137 70.8808 43.5364 70.8795 43.5893C70.8795 43.7152 70.8795 43.8348 70.8795 43.9569C70.8795 44.0148 70.8581 44.0286 70.8052 44.0274C70.7146 44.0249 70.6227 44.0274 70.532 44.0274Z" fill="#161B1F"/>
<path d="M44.3507 39.6904C43.2997 38.0958 42.2465 36.5011 41.1913 34.9065C41.0968 34.7629 41.0968 34.7642 41.2555 34.7138C41.6263 34.6025 41.9699 34.4156 42.2649 34.1649C42.5599 33.9142 42.7997 33.6052 42.9693 33.2572C43.1794 32.8471 43.3025 32.398 43.3309 31.9381C43.3593 31.4782 43.2923 31.0174 43.1343 30.5845C42.966 30.0807 42.6582 29.635 42.2465 29.2991C41.6824 28.8427 40.9813 28.5887 40.2557 28.5778C39.0682 28.5337 37.8807 28.5677 36.6945 28.5601C36.6089 28.5601 36.6089 28.6017 36.6089 28.6634C36.6089 32.3445 36.6089 36.0261 36.6089 39.7081C36.6089 39.7861 36.6278 39.8075 36.7071 39.8075C37.275 39.8075 37.8404 39.8075 38.4096 39.8075C38.5116 39.8075 38.5443 39.7886 38.5431 39.6816C38.5431 38.3127 38.5431 36.9438 38.5431 35.575C38.5431 35.3924 38.5431 35.2086 38.5431 35.0261C38.5431 34.9543 38.5582 34.9253 38.635 34.9291C38.7583 34.9354 38.8819 34.9354 39.0052 34.9291C39.0359 34.9259 39.0668 34.9323 39.0936 34.9474C39.1204 34.9625 39.1419 34.9856 39.1551 35.0135C39.4649 35.512 39.7763 36.0101 40.0894 36.5078L42.1042 39.7257C42.1282 39.766 42.1433 39.8113 42.21 39.8113C42.9391 39.8113 43.6682 39.8113 44.4175 39.8113C44.391 39.7572 44.3721 39.7244 44.3507 39.6904ZM40.9508 32.7952C40.7248 32.985 40.4422 33.0943 40.1474 33.1062C39.6374 33.1376 39.1261 33.1062 38.6161 33.12C38.5318 33.12 38.5406 33.0709 38.5406 33.0168V31.7427C38.5406 31.3134 38.5406 30.8841 38.5406 30.4548C38.5406 30.3894 38.5557 30.3642 38.6275 30.3642C39.0921 30.3642 39.5568 30.3642 40.0214 30.3705C40.3485 30.3645 40.6679 30.4702 40.9268 30.6701C41.2719 30.9509 41.3814 31.3336 41.3789 31.7591C41.3776 32.162 41.2694 32.5245 40.9533 32.7977L40.9508 32.7952Z" fill="#161B1F"/>
<path d="M71.5945 31.6865C71.6041 31.1351 71.4801 30.5895 71.2331 30.0965C71.0321 29.693 70.7477 29.3368 70.3986 29.0516C70.0495 28.7664 69.6437 28.5587 69.2082 28.4422C68.4744 28.2284 67.6902 28.2647 66.9793 28.5454C66.443 28.7491 65.9723 29.0951 65.6181 29.5463C65.137 30.1582 64.8841 30.9185 64.9028 31.6966C64.9028 33.3433 64.9028 34.9904 64.9028 36.6379C64.8957 37.0856 64.9731 37.5306 65.1308 37.9497C65.2859 38.3688 65.5286 38.75 65.8425 39.068C66.1565 39.386 66.5346 39.6335 66.9516 39.7941C67.7704 40.1294 68.6875 40.1335 69.5091 39.8054C69.9336 39.6477 70.3191 39.4002 70.6392 39.08C70.9593 38.7597 71.2065 38.3742 71.364 37.9497C71.5218 37.5307 71.5991 37.0856 71.5919 36.6379C71.5919 35.8183 71.5919 35.0013 71.5919 34.1779C71.5919 33.3546 71.597 32.5136 71.5945 31.6865ZM69.6565 34.1717C69.6565 35.0109 69.6565 35.8502 69.6565 36.6895C69.6704 37.0402 69.5725 37.3863 69.3769 37.6778C69.2635 37.8425 69.1136 37.9789 68.9389 38.0763C68.7642 38.1737 68.5693 38.2294 68.3695 38.2393C67.4515 38.3123 66.8685 37.6614 66.8219 36.8104C66.8219 36.7613 66.8219 36.7122 66.8219 36.6631C66.8219 34.9954 66.8219 33.3277 66.8219 31.6601C66.8145 31.385 66.8705 31.1119 66.9856 30.8619C67.1151 30.6065 67.321 30.3979 67.5748 30.2652C67.8285 30.1325 68.1174 30.0823 68.401 30.1216C69.1956 30.2135 69.6389 30.8002 69.6514 31.5254C69.6653 32.4066 69.6514 33.2879 69.6514 34.1691L69.6565 34.1717Z" fill="#161B1F"/>
<path d="M52.3157 43.5166C52.2913 43.3943 52.2285 43.2829 52.1362 43.1989C52.044 43.1148 51.9273 43.0625 51.8032 43.0496C51.7165 43.0339 51.6274 43.037 51.542 43.0587C51.4566 43.0804 51.3769 43.1202 51.3083 43.1755C51.292 43.1414 51.2868 43.1031 51.2932 43.0659C51.2932 42.8721 51.2932 42.6782 51.2932 42.4856C51.2932 42.3987 51.2667 42.3748 51.1861 42.3823C51.1158 42.3886 51.045 42.3886 50.9746 42.3823C50.8877 42.3735 50.8638 42.4037 50.8638 42.4919C50.8638 43.3014 50.8638 44.1108 50.8638 44.9203C50.8638 45.152 50.8638 45.152 51.0917 45.152C51.2365 45.152 51.2352 45.152 51.2441 45.0135C51.2441 45.0135 51.2529 45.006 51.2579 45.0009C51.2907 45.0311 51.3209 45.0651 51.3561 45.0928C51.676 45.3446 52.22 45.147 52.3119 44.7252C52.3989 44.3272 52.4002 43.9152 52.3157 43.5166ZM51.9228 44.4936C51.9226 44.5334 51.9145 44.5728 51.8989 44.6094C51.8833 44.6461 51.8605 44.6792 51.8318 44.7069C51.8032 44.7346 51.7693 44.7563 51.7322 44.7707C51.695 44.785 51.6554 44.7919 51.6155 44.7907C51.5758 44.7944 51.5358 44.7897 51.498 44.777C51.4602 44.7643 51.4255 44.7438 51.3961 44.7169C51.3667 44.69 51.3432 44.6572 51.3272 44.6207C51.3112 44.5842 51.3031 44.5448 51.3032 44.5049C51.2825 44.2451 51.2825 43.9841 51.3032 43.7244C51.3042 43.6853 51.313 43.6469 51.329 43.6113C51.3451 43.5757 51.3681 43.5438 51.3968 43.5172C51.4254 43.4907 51.4591 43.4702 51.4958 43.4569C51.5325 43.4436 51.5715 43.4378 51.6105 43.4398C51.6503 43.4387 51.6899 43.4454 51.7271 43.4595C51.7643 43.4737 51.7984 43.4951 51.8273 43.5225C51.8562 43.5499 51.8794 43.5827 51.8955 43.6191C51.9117 43.6554 51.9206 43.6946 51.9215 43.7344C51.9316 43.8603 51.9215 43.995 51.9215 44.1247C51.9241 44.2481 51.9316 44.3714 51.9228 44.4936Z" fill="#161B1F"/>
</svg>
