<svg width="74" height="74" viewBox="0 0 74 74" fill="none" xmlns="http://www.w3.org/2000/svg">
<path d="M24.932 29.9586V44.6254H20.4276V36.3026L17.401 44.624H13.4975L10.4709 36.3034V44.6247H5.91992V29.9579H11.4869L15.5066 39.4861L19.4109 29.9586H24.932ZM33.0424 33.1621V35.5967H38.3334V38.6958H33.0424V41.3591H39.026V44.6247H28.4914V29.8965H39.026V33.1621H33.0424ZM46.7035 33.1621V35.5967H51.9938V38.6958H46.7028V41.3591H52.6864V44.6247H42.1525V29.8965H52.6864V33.1621H46.7035ZM63.4135 33.9946C63.321 33.4951 63.1441 33.1206 62.8822 32.8713C62.6357 32.6211 62.2739 32.4968 61.7966 32.4968C61.0729 32.4968 60.5645 32.815 60.2722 33.4536C59.9791 34.0915 59.8408 35.0765 59.8563 36.4077C60.1175 35.9363 60.5415 35.5619 61.1261 35.2844C61.727 35.0069 62.3975 34.8678 63.1367 34.8678C64.6456 34.8678 65.8466 35.2844 66.7405 36.1162C67.633 36.9487 68.0799 38.1408 68.0799 39.6948C68.0799 40.7071 67.8409 41.5944 67.3636 42.3573C66.9018 43.1195 66.2314 43.7167 65.3538 44.1466C64.4761 44.5625 63.429 44.7705 62.2125 44.7705C59.8097 44.7705 58.1388 44.1045 57.1997 42.7732C56.2747 41.4279 55.8137 39.569 55.8137 37.198C55.8137 35.3399 56.0209 33.8281 56.4368 32.6633C56.8682 31.4978 57.5379 30.6379 58.4466 30.0837C59.3709 29.5146 60.58 29.2305 62.0733 29.2305C63.8449 29.2305 65.1843 29.6878 66.093 30.6032C67.0173 31.5052 67.5331 32.6352 67.6411 33.9946H63.4135ZM60.1797 39.5905C60.1797 40.1174 60.341 40.5266 60.6644 40.8181C60.9878 41.109 61.4503 41.2547 62.0504 41.2547C62.6054 41.2547 63.0361 41.123 63.3439 40.8596C63.668 40.5821 63.8294 40.1728 63.8294 39.6319C63.8294 39.105 63.6673 38.7032 63.3439 38.4257C63.0205 38.1482 62.5817 38.0091 62.0275 38.0091C61.4888 38.0091 61.0418 38.1482 60.6881 38.4257C60.3491 38.7025 60.1797 39.0917 60.1797 39.5905Z" fill="#161B1F"/>
</svg>
