<svg width="24" height="24" viewBox="0 0 24 24" fill="none" xmlns="http://www.w3.org/2000/svg">
<path d="M16.6352 8.92138C16.3061 8.73337 15.8829 8.73337 15.5068 8.92138L12.8738 10.4725L11.0871 11.4595L8.5011 13.0106C8.17198 13.1987 7.74882 13.1987 7.37267 13.0106L5.3509 11.7886C5.02177 11.6006 4.78668 11.2245 4.78668 10.8015V8.45135C4.78668 8.07533 4.97475 7.69931 5.3509 7.46429L7.37267 6.28922C7.7018 6.10121 8.12496 6.10121 8.5011 6.28922L10.5229 7.51129C10.852 7.69931 11.0871 8.07533 11.0871 8.49836V10.0495L12.8738 9.01539V7.41729C12.8738 7.04127 12.6857 6.66524 12.3096 6.43023L8.54812 4.22109C8.219 4.03308 7.79583 4.03308 7.41969 4.22109L3.56422 6.47723C3.18807 6.66524 3 7.04127 3 7.41729V11.8356C3 12.2116 3.18807 12.5876 3.56422 12.8226L7.37267 15.0318C7.7018 15.2198 8.12496 15.2198 8.5011 15.0318L11.0871 13.5277L12.8738 12.4936L15.4598 10.9895C15.7889 10.8015 16.2121 10.8015 16.5882 10.9895L18.61 12.1646C18.9391 12.3526 19.1742 12.7286 19.1742 13.1517V15.5018C19.1742 15.8778 18.9861 16.2538 18.61 16.4889L16.6352 17.6639C16.3061 17.8519 15.8829 17.8519 15.5068 17.6639L13.485 16.4889C13.1559 16.3008 12.9208 15.9248 12.9208 15.5018V13.9977L11.1341 15.0318V16.5829C11.1341 16.9589 11.3222 17.3349 11.6983 17.5699L15.5068 19.7791C15.8359 19.9671 16.2591 19.9671 16.6352 19.7791L20.4437 17.5699C20.7728 17.3819 21.0079 17.0059 21.0079 16.5829V12.1176C21.0079 11.7416 20.8198 11.3655 20.4437 11.1305L16.6352 8.92138Z" fill="#8247E5"/>
</svg>
