<svg width="85" height="68" viewBox="0 0 85 68" fill="none" xmlns="http://www.w3.org/2000/svg">
<path d="M35.2387 51.289C35.2387 55.9835 33.4946 59.9423 30.0063 63.1654C26.5892 66.3885 22.4246 68 17.5126 68C12.4581 68 8.25796 66.3885 4.91206 63.1654C1.63735 59.9423 0 55.9835 0 51.289C0 49.0469 0.320353 46.6646 0.961057 44.1422C1.60176 41.6198 2.88317 38.3617 4.80528 34.3679L21.3568 0H37.3744L28.5113 38.0464C30.5046 39.4477 32.1064 41.3045 33.3166 43.6167C34.598 45.8588 35.2387 48.4163 35.2387 51.289ZM82.7575 51.289C82.7575 55.9835 81.0134 59.9423 77.5251 63.1654C74.0369 66.3885 69.8723 68 65.0314 68C60.1194 68 55.9548 66.3885 52.5377 63.1654C49.1918 59.9423 47.5188 55.9835 47.5188 51.289C47.5188 49.0469 47.8392 46.6646 48.4799 44.1422C49.1206 41.6198 50.4376 38.3617 52.4309 34.3679L69.0892 0H85L76.0302 38.0464C78.0946 39.4477 79.732 41.3045 80.9422 43.6167C82.1524 45.8588 82.7575 48.4163 82.7575 51.289Z" fill="#35414C"/>
</svg>
