<svg width="74" height="74" viewBox="0 0 74 74" fill="none" xmlns="http://www.w3.org/2000/svg">
<path d="M13.6699 38.9243C13.6699 36.0342 16.1365 33.6582 19.1538 33.6582C22.1711 33.6582 24.6745 36.0411 24.6745 38.9243C24.6745 41.8512 22.1711 44.2043 19.1538 44.2043C16.1365 44.2043 13.6699 41.8581 13.6699 38.9243ZM16.3752 38.9243C16.3752 40.5978 17.5706 41.8145 19.1538 41.8145C20.7371 41.8145 21.9325 40.568 21.9325 38.9243C21.9325 38.187 21.6398 37.4799 21.1187 36.9586C20.5975 36.4372 19.8908 36.1444 19.1538 36.1444C18.4169 36.1444 17.7101 36.4372 17.189 36.9586C16.6679 37.4799 16.3752 38.187 16.3752 38.9243Z" fill="#161B1F"/>
<path d="M25.542 38.9243C25.542 36.0342 28.0086 33.6582 31.0259 33.6582C34.0432 33.6582 36.5419 36.0411 36.5419 38.9243C36.5419 41.8512 34.0409 44.2043 31.0213 44.2043C28.0017 44.2043 25.542 41.8581 25.542 38.9243ZM28.2472 38.9243C28.2472 40.5978 29.445 41.8145 31.0259 41.8145C32.6068 41.8145 33.8046 40.568 33.8046 38.9243C33.8046 38.187 33.5118 37.4799 32.9907 36.9586C32.4696 36.4372 31.7629 36.1444 31.0259 36.1444C30.289 36.1444 29.5822 36.4372 29.0611 36.9586C28.54 37.4799 28.2472 38.187 28.2472 38.9243Z" fill="#161B1F"/>
<path d="M49.4395 38.9243C49.4395 36.0342 51.9061 33.6582 54.9234 33.6582C57.9407 33.6582 60.444 36.0411 60.444 38.9243C60.444 41.8512 57.9407 44.2043 54.9234 44.2043C51.9061 44.2043 49.4395 41.8581 49.4395 38.9243ZM52.1447 38.9243C52.1447 40.5978 53.3401 41.8145 54.9234 41.8145C56.5066 41.8145 57.702 40.568 57.702 38.9243C57.702 38.187 57.4093 37.4799 56.8882 36.9586C56.3671 36.4372 55.6603 36.1444 54.9234 36.1444C54.1864 36.1444 53.4797 36.4372 52.9585 36.9586C52.4374 37.4799 52.1447 38.187 52.1447 38.9243Z" fill="#161B1F"/>
<path d="M61.3228 38.9243C61.3228 36.0342 63.7871 33.6582 66.8067 33.6582C69.8263 33.6582 72.3181 36.0411 72.3181 38.9243C72.3181 41.8512 69.8148 44.2043 66.7975 44.2043C63.7802 44.2043 61.3228 41.8581 61.3228 38.9243ZM64.028 38.9243C64.028 40.5978 65.2234 41.8145 66.8067 41.8145C68.3899 41.8145 69.583 40.568 69.583 38.9243C69.583 38.187 69.2903 37.4799 68.7692 36.9586C68.2481 36.4372 67.5413 36.1444 66.8044 36.1444C66.0674 36.1444 65.3607 36.4372 64.8396 36.9586C64.3185 37.4799 64.0257 38.187 64.0257 38.9243H64.028Z" fill="#161B1F"/>
<path d="M8.61056 39.8005L4.56761 29.9707H1.66504L7.4243 43.9762H9.80601L15.6135 29.9707H12.6879L8.61056 39.8005Z" fill="#161B1F"/>
<path d="M45.7198 30.3945V34.4073C44.8653 33.9187 43.8978 33.6623 42.9136 33.6635C39.894 33.6635 37.4297 36.0394 37.4297 38.9296C37.4297 41.8565 39.894 44.2095 42.9136 44.2095C43.8973 44.2112 44.8645 43.9564 45.7198 43.4704V43.9731H48.4434V30.3945H45.7198ZM42.9205 41.8198C41.3373 41.8198 40.1418 40.6031 40.1418 38.9296C40.1418 38.1923 40.4346 37.4852 40.9557 36.9639C41.4768 36.4425 42.1835 36.1496 42.9205 36.1496C43.6574 36.1496 44.3642 36.4425 44.8853 36.9639C45.4064 37.4852 45.6992 38.1923 45.6992 38.9296C45.706 40.5664 44.4899 41.8198 42.9274 41.8198H42.9205Z" fill="#161B1F"/>
</svg>
