<svg width="24" height="24" viewBox="0 0 24 24" fill="none" xmlns="http://www.w3.org/2000/svg">
<path d="M19.6621 5.98717L13.5053 2.42699C13.0611 2.17671 12.5668 2.03906 12.0537 2.03906C11.5407 2.03906 11.0464 2.17671 10.6084 2.42699L4.4516 5.98717C4.01362 6.2437 3.64446 6.6066 3.38793 7.05084C3.1314 7.48883 3 7.98938 3 8.50245V15.6353C3.00626 16.1421 3.13765 16.6364 3.39419 17.0744C3.65072 17.5124 4.01362 17.8753 4.4516 18.1256L10.6084 21.6857C11.0464 21.9423 11.5469 22.0737 12.06 22.0737C12.5731 22.0737 13.0674 21.9423 13.5116 21.6857L19.6684 18.1256C20.1064 17.869 20.4755 17.5061 20.7321 17.0619C20.9886 16.6239 21.12 16.1234 21.12 15.6103V8.47742C21.1137 7.97061 20.9823 7.47631 20.7258 7.03833C20.463 6.60035 20.1001 6.23745 19.6621 5.98717ZM4.44535 8.49619C4.44535 8.23966 4.51417 7.98938 4.63931 7.77039C4.76445 7.5514 4.95216 7.36369 5.17115 7.23855L11.3279 3.68463C11.5469 3.55949 11.7972 3.49066 12.0537 3.49066C12.3103 3.49066 12.5606 3.55949 12.7795 3.68463L18.9426 7.23855C19.1616 7.36369 19.343 7.54514 19.4682 7.75787C19.5933 7.97687 19.6621 8.22089 19.6684 8.47116V9.19696C19.6684 9.76008 19.4431 10.3044 19.0427 10.6986C18.6423 11.0991 18.1042 11.3243 17.541 11.3243H6.57895C5.80935 11.3243 5.06478 11.5683 4.44535 12.0313V8.49619ZM19.6621 15.6103C19.6621 15.8668 19.5933 16.1171 19.4682 16.3361C19.343 16.5551 19.1553 16.7428 18.9363 16.8679L12.7733 20.4219C12.5543 20.547 12.304 20.6158 12.0475 20.6158C11.791 20.6158 11.5407 20.547 11.3217 20.4219L5.16489 16.8679C4.9459 16.7428 4.76445 16.5613 4.63931 16.3486C4.51417 16.1296 4.44535 15.8856 4.43909 15.6353V14.9095C4.43909 14.3464 4.66434 13.802 5.06478 13.4079C5.46522 13.0074 6.00331 12.7822 6.56644 12.7822H17.5223C18.2919 12.7822 19.0365 12.5381 19.6559 12.0751V15.6103H19.6621Z" fill="#8247E5"/>
<path d="M8.68744 8.13324H10.0952V10.2356H11.5468V8.13324C11.5468 7.75157 11.3967 7.38241 11.1214 7.10711C10.8523 6.83806 10.4832 6.68164 10.0952 6.68164H8.68744C8.30577 6.68164 7.93661 6.83181 7.66131 7.10711C7.39226 7.37616 7.23584 7.74531 7.23584 8.13324V10.2356H8.68744V8.13324Z" fill="#8247E5"/>
<path d="M10.0889 15.9734H8.68109V13.8711H7.22949V15.9734C7.22949 16.3551 7.37966 16.7242 7.65496 16.9995C7.92401 17.2686 8.29317 17.425 8.68109 17.425H10.0889C10.4706 17.425 10.8397 17.2748 11.115 16.9995C11.3841 16.7305 11.5405 16.3613 11.5405 15.9734V13.8711H10.0889V15.9734Z" fill="#8247E5"/>
<path d="M14.394 8.13324H15.8018V10.2356H17.2534V8.13324C17.2534 7.75157 17.1032 7.38241 16.8279 7.10711C16.5589 6.83806 16.1897 6.68164 15.8018 6.68164H14.394C14.0123 6.68164 13.6432 6.83181 13.3679 7.10711C13.0988 7.37616 12.9424 7.74531 12.9424 8.13324V10.2356H14.394V8.13324Z" fill="#8247E5"/>
<path d="M15.8076 15.9734H14.3998V13.8711H12.9482V15.9734C12.9482 16.3551 13.0984 16.7242 13.3737 16.9995C13.6428 17.2686 14.0119 17.425 14.3998 17.425H15.8076C16.1893 17.425 16.5585 17.2748 16.8338 16.9995C17.1028 16.7305 17.2592 16.3613 17.2592 15.9734V13.8711H15.8076V15.9734Z" fill="#8247E5"/>
</svg>
